<svg width="492" height="498" viewBox="0 0 492 498" fill="none" xmlns="http://www.w3.org/2000/svg">
<path d="M320.749 497.102V489.425H313.072V465.986H320.749V458.309H344.189V465.986H351.865V474.072H343.779V466.395H321.158V489.016H343.779V481.339H351.865V489.425H344.189V497.102H320.749Z" fill="white"/>
<path d="M360.652 497.102V458.309H368.738V489.016H399.446V497.102H360.652Z" fill="white"/>
<path d="M411.861 497.102V489.425H404.184V458.309H412.27V489.016H434.891V458.309H442.978V489.425H435.301V497.102H411.861Z" fill="white"/>
<path d="M460.351 473.662H482.972V466.395H460.351V473.662ZM460.351 489.016H482.972V481.749H460.351V489.016ZM452.264 497.102V458.309H483.381V465.986H491.058V489.425H483.381V497.102H452.264Z" fill="white"/>
<path d="M0.15979 497.102V458.309H8.24605V473.662H30.8671V458.309H38.9534V497.102H30.8671V481.749H8.24605V497.102H0.15979Z" fill="white"/>
<path d="M56.3762 473.662H78.9972V466.395H56.3762V473.662ZM48.2899 497.102V465.986H55.9668V458.309H79.4067V465.986H87.0835V497.102H78.9972V481.749H56.3762V497.102H48.2899Z" fill="white"/>
<path d="M104.047 497.102V489.425H96.3701V465.986H104.047V458.309H127.487V465.986H135.164V474.072H127.077V466.395H104.456V489.016H127.077V481.339H135.164V489.425H127.487V497.102H104.047Z" fill="white"/>
<path d="M143.95 497.102V458.309H152.037V473.662H166.981V465.986H174.658V458.309H182.744V466.395H175.067V474.072H167.39V481.339H175.067V489.016H182.744V497.102H174.658V489.425H166.981V481.749H152.037V497.102H143.95Z" fill="white"/>
<path d="M190.931 497.102V458.309H229.725V466.395H199.017V473.662H222.048V481.749H199.017V489.016H229.725V497.102H190.931Z" fill="white"/>
<path d="M244.748 473.662H267.369V466.395H244.748V473.662ZM236.662 497.102V458.309H267.779V465.986H275.456V474.072H267.779V489.016H275.456V497.102H267.369V489.425H259.693V481.749H244.748V497.102H236.662Z" fill="white"/>
<path d="M58.1935 428.909V416.78H104.255V405.879H69.7088V394.364H58.1935V382.234H69.7088V370.719H116.384V382.848H70.3229V393.749H104.869V405.265H116.384V417.394H104.869V428.909H58.1935Z" fill="white"/>
<path d="M139.655 428.909V417.394H128.14V370.719H140.269V416.78H174.201V370.719H186.33V417.394H174.815V428.909H139.655Z" fill="white"/>
<path d="M200.26 428.909V382.234H211.775V370.719H246.935V382.234H258.45V428.909H246.321V382.848H212.389V428.909H200.26Z" fill="white"/>
<path d="M284.509 416.78H318.441V382.848H284.509V416.78ZM272.38 428.909V370.719H319.055V382.234H330.57V417.394H319.055V428.909H272.38Z" fill="white"/>
<path d="M355.88 393.749H389.812V382.848H355.88V393.749ZM343.751 428.909V382.234H355.266V370.719H390.426V382.234H401.941V428.909H389.812V405.879H355.88V428.909H343.751Z" fill="white"/>
<path d="M415.871 428.909V370.719H428V428.909H415.871Z" fill="white"/>
<path fill-rule="evenodd" clip-rule="evenodd" d="M254.35 0.848633V11.4C254.177 10.643 254.046 10.0667 253.926 9.53405C253.801 8.98275 253.686 8.47812 253.547 7.86819C252.831 7.86819 252.101 7.85003 251.362 7.83165C249.464 7.78447 247.508 7.73584 245.592 7.98921C244.956 8.06873 244.395 8.74196 243.718 9.55639C243.364 9.98152 242.978 10.4451 242.533 10.8829C242.662 9.32751 242.787 7.84044 242.908 6.39203C243.067 4.50026 243.22 2.67444 243.369 0.848633H254.35ZM95.8655 159.149L94 159.284V181.839C97.4108 182.092 100.822 182.345 104.507 182.62V191.114H129.329C129.38 190.127 129.43 189.158 129.48 188.19L129.48 188.188L129.48 188.18L129.481 188.172L129.481 188.167C129.581 186.228 129.681 184.288 129.791 182.202H140.496V158.855H136.282H136.282C129.989 158.888 129.956 158.888 129.846 165.027C129.813 166.732 129.373 167.612 127.48 167.447C126.374 167.35 125.258 167.37 124.021 167.393H124.021H124.02H124.02H124.019H124.019H124.018H124.017H124.017H124.016H124.016H124.015H124.014H124.014H124.013H124.012H124.011H124.011H124.01C123.442 167.403 122.85 167.414 122.221 167.414V181.762H112.099V166.897H122.111V158.524H129.461V148.765H104.364V158.535C101.363 158.75 98.5956 158.951 95.8655 159.149ZM198.336 305.253V325.42V325.431H275.221C276.143 325.393 277.065 325.347 277.989 325.3C279.975 325.201 281.963 325.102 283.946 325.079C287.451 325.041 290.957 325.05 294.488 325.06H294.49H294.491H294.493H294.494H294.495H294.497H294.498H294.5H294.501H294.503H294.504H294.505H294.507H294.508H294.51H294.511H294.512H294.514C296.094 325.064 297.679 325.068 299.272 325.068V305.242H287.345V314.913H210.262V305.253H198.336ZM198.182 111.85V111.841L198.16 111.83L198.182 111.85ZM198.182 111.936V111.85L198.259 111.918L198.229 111.925L198.182 111.936ZM299.46 112.034C300.236 112.082 301.012 112.132 301.789 112.182L301.796 112.183C303.691 112.305 305.586 112.428 307.48 112.512C308.643 112.565 309.811 112.551 311.035 112.537C311.618 112.53 312.214 112.523 312.828 112.523V130.534C312.828 130.84 312.767 131.15 312.707 131.459C312.661 131.694 312.616 131.93 312.597 132.163C312.332 135.463 312.486 135.628 315.699 135.628H325.458C325.486 135.876 325.522 136.112 325.556 136.34L325.556 136.341L325.557 136.341L325.557 136.341C325.619 136.754 325.678 137.143 325.678 137.532C325.675 142.238 325.665 146.944 325.655 151.649V151.658C325.636 161.066 325.616 170.473 325.645 179.88C325.645 181.817 325.084 182.444 323.159 182.367C320.883 182.275 318.602 182.295 316.224 182.316H316.223H316.223H316.222H316.222H316.222H316.221H316.221H316.221H316.22H316.22H316.219H316.219H316.219H316.218H316.218H316.218H316.216C315.17 182.325 314.106 182.334 313.015 182.334V206.594C311.865 206.594 310.74 206.607 309.635 206.62C307.06 206.649 304.586 206.678 302.122 206.539C299.9 206.418 299.317 207.155 299.339 209.334C299.412 217.161 299.401 224.995 299.39 232.83V232.831V232.832V232.832V232.833V232.833V232.834V232.835V232.835V232.836V232.836V232.837V232.837V232.838V232.839V232.839V232.84C299.386 235.64 299.383 238.44 299.383 241.241V244.531C297.921 244.531 296.479 244.542 295.05 244.553L295.046 244.554C291.637 244.581 288.306 244.607 284.98 244.476C282.395 244.377 281.592 245.268 281.768 247.787C281.911 249.843 281.878 251.909 281.844 254.086V254.086V254.086V254.087V254.087V254.087V254.087V254.088V254.088V254.088V254.089V254.089V254.089V254.089V254.09V254.09C281.828 255.081 281.812 256.094 281.812 257.139C280.55 257.139 279.305 257.148 278.071 257.156H278.066H278.061H278.056H278.051H278.046H278.042H278.037H278.032H278.027H278.022H278.017H278.013H278.008H278.007H278.006H278.005H278.005H278.004H278.003H278.002H278.001H278H278H277.999H277.998H277.997H277.996H277.995H277.995C274.974 257.177 272.022 257.196 269.071 257.095C267.013 257.029 266.298 257.723 266.397 259.758C266.54 262.41 266.507 265.072 266.419 267.735C266.364 269.726 267.112 270.485 269.17 270.419C272.202 270.326 275.24 270.343 278.386 270.361C279.669 270.368 280.97 270.375 282.296 270.375C282.296 271.644 282.295 272.897 282.293 274.138C282.291 276.59 282.288 279.001 282.296 281.411C282.305 283.078 281.259 283.046 280.242 283.014L280.24 283.014C280.084 283.009 279.928 283.005 279.776 283.006C274.957 283.013 270.138 283.011 265.319 283.009C262.91 283.007 260.5 283.006 258.09 283.006H254.603C254.603 283.781 254.597 284.538 254.59 285.283V285.283V285.283V285.283V285.284V285.284V285.284V285.285V285.285V285.285V285.285V285.286V285.286V285.286V285.286V285.287V285.287C254.577 286.98 254.564 288.608 254.625 290.235C254.691 291.929 254.24 292.765 252.347 292.688C250.257 292.604 248.162 292.621 245.954 292.639H245.954H245.953H245.952H245.951H245.95H245.949H245.949H245.948H245.947H245.946H245.945H245.944H245.943H245.942H245.941H245.94C244.979 292.647 243.997 292.655 242.984 292.655V283.138H216.182V270.375C217.346 270.375 218.512 270.366 219.679 270.358H219.68H219.681H219.683H219.684H219.685H219.686H219.687H219.688H219.689H219.691H219.692H219.693H219.694H219.695H219.696H219.697C222.418 270.337 225.145 270.316 227.867 270.408C230.111 270.485 230.969 269.759 230.837 267.427C230.708 265.163 230.737 262.888 230.766 260.495V260.494V260.494V260.493V260.493V260.493V260.492V260.492V260.491V260.491V260.491V260.49V260.49V260.49V260.489V260.489V260.488C230.78 259.418 230.793 258.323 230.793 257.194H216.116V244.641C217.395 244.641 218.666 244.644 219.931 244.648C223.073 244.657 226.18 244.666 229.286 244.619C230.881 244.597 231.333 245.29 231.289 246.786C231.252 248.093 231.263 249.399 231.273 250.706C231.285 252.15 231.296 253.594 231.244 255.038C231.178 256.732 231.828 257.304 233.478 257.26C235.561 257.199 237.638 257.212 239.827 257.226C240.796 257.232 241.786 257.238 242.808 257.238C242.808 258.299 242.815 259.339 242.821 260.365C242.837 262.81 242.853 265.173 242.775 267.537C242.72 269.33 243.347 269.979 245.152 269.913C247.254 269.836 249.356 269.851 251.561 269.867H251.564C252.497 269.873 253.449 269.88 254.427 269.88V257.238C255.443 257.238 256.433 257.23 257.403 257.223C259.647 257.204 261.79 257.187 263.933 257.271C265.836 257.337 266.551 256.666 266.485 254.741C266.408 252.504 266.423 250.255 266.439 247.916C266.446 246.93 266.452 245.929 266.452 244.905H281.35C281.35 244.391 281.361 243.903 281.372 243.434C281.396 242.459 281.417 241.564 281.328 240.68C281.119 238.578 282.054 237.775 284.023 238.039C286.62 238.402 287.434 237.39 287.39 234.727C287.27 228.166 287.289 221.599 287.309 214.884V214.883V214.883V214.882V214.881V214.881V214.88V214.879V214.878V214.878V214.877V214.876V214.876V214.875V214.874V214.874V214.873C287.316 212.324 287.324 209.754 287.324 207.155C288.279 207.155 289.221 207.145 290.152 207.135H290.153H290.155H290.156H290.158H290.16H290.161H290.163H290.164H290.166H290.167H290.169H290.171H290.172H290.174H290.175H290.177H290.178C292.303 207.112 294.374 207.089 296.434 207.188C298.623 207.298 299.504 206.682 299.46 204.295C299.356 199.209 299.373 194.123 299.391 188.892V188.891C299.398 186.869 299.405 184.825 299.405 182.752H198.281V206.451H185.342V182.433H172.701V135.639C173.676 135.639 174.655 135.632 175.637 135.624C177.978 135.606 180.334 135.587 182.691 135.672C184.594 135.739 185.254 135.111 185.221 133.164C185.149 128.195 185.159 123.226 185.17 118.126V118.125V118.121V118.118V118.114V118.111V118.107V118.104V118.1V118.096V118.093V118.089V118.086V118.082V118.078V118.074V118.071C185.173 116.244 185.177 114.401 185.177 112.534C186.128 112.534 187.065 112.538 187.991 112.541H187.993H187.995H187.996H187.998H187.999H188.001H188.003H188.004H188.006H188.007H188.009H188.01H188.012H188.013C190.54 112.549 192.989 112.558 195.432 112.501C196.096 112.486 196.76 112.308 197.421 112.131C197.675 112.062 197.929 111.994 198.182 111.936V134.88H185.76V146.829H312.354C312.354 145.956 312.358 145.101 312.362 144.26V144.257V144.255V144.253V144.251V144.249V144.247V144.244V144.242V144.24V144.238V144.236V144.234V144.232C312.373 141.456 312.384 138.828 312.266 136.201C312.244 135.783 310.968 135.122 310.253 135.1C307.671 135.018 305.089 135.028 302.343 135.038C301.403 135.042 300.444 135.045 299.46 135.045V112.034ZM299.36 111.94H299.448H299.449L299.46 111.929V112.034L299.371 112.029L299.36 112.039V111.94ZM299.36 111.94H287.379C287.379 110.448 287.381 108.983 287.384 107.536C287.388 104.695 287.393 101.922 287.379 99.1443C287.357 95.7116 286.993 95.2275 283.66 95.2825C281.811 95.3045 281.184 94.6553 281.371 92.884C281.424 92.4119 281.374 91.9245 281.32 91.3905L281.32 91.3895L281.319 91.3882L281.319 91.3879C281.294 91.1387 281.268 90.8792 281.25 90.6065C280.752 90.5785 280.269 90.5521 279.774 90.5249C278.905 90.4772 277.998 90.4275 276.904 90.3644C276.904 89.9009 276.898 89.4394 276.892 88.9793V88.979V88.9788V88.9785V88.9782V88.978C276.878 87.9094 276.865 86.8484 276.926 85.7874C277.025 83.961 276.354 82.8167 274.484 82.4977C274.318 82.47 274.156 82.412 273.994 82.3536C273.897 82.319 273.801 82.2842 273.703 82.2556L273.657 82.243C266.705 80.2971 266.65 80.2817 266.507 73.1126C266.474 71.3412 265.946 70.659 264.13 70.7361C262.092 70.8207 260.048 70.8031 257.93 70.7849H257.93H257.93H257.93H257.929H257.929L257.927 70.7848C257.018 70.777 256.094 70.7691 255.152 70.7691V58.8204H266.661V71.3082C267.941 71.3082 269.2 71.3198 270.443 71.3312H270.443H270.444H270.445H270.446H270.446C273.402 71.3584 276.27 71.3848 279.127 71.2532C281.624 71.1431 282.482 71.8473 282.383 74.4659C282.235 78.2817 282.264 82.103 282.293 86.0313V86.0314V86.0316V86.0318V86.0319V86.0331V86.0338V86.0344V86.035V86.0357V86.0364C282.305 87.6565 282.317 89.2949 282.317 90.9585H299.36V111.94ZM185.551 161.48V161.48V161.48V161.48V161.48V161.48V161.48V161.479V161.479V161.479V161.479V161.479V161.479V161.479C185.557 160.608 185.562 159.73 185.562 158.844L312.343 158.855V168.9C312.354 170.209 311.903 170.803 310.396 170.803C287.25 170.796 264.109 170.811 240.967 170.826C227.08 170.834 213.193 170.843 199.304 170.847C195.377 170.847 191.438 170.803 187.521 170.594C186.85 170.561 185.683 169.648 185.65 169.098C185.519 166.589 185.535 164.068 185.551 161.484V161.483V161.483V161.483V161.483V161.482V161.482V161.482V161.482V161.482V161.481V161.481V161.481V161.481V161.48ZM367.234 158.524V158.502L367.235 158.513L367.236 158.525L367.234 158.524ZM367.239 158.585L367.236 158.525L367.3 158.579L367.27 158.582L367.239 158.585ZM367.239 158.585C367.337 160.379 367.44 162.171 367.551 164.114L367.555 164.173C367.604 165.029 367.655 165.914 367.707 166.842C368.211 166.842 368.718 166.849 369.227 166.856C370.396 166.873 371.574 166.889 372.747 166.82C374.188 166.732 374.76 167.282 374.661 168.702C374.574 169.929 374.516 171.162 374.458 172.397L374.457 172.403L374.456 172.438C374.434 172.901 374.412 173.365 374.388 173.829C376.55 173.851 378.714 173.87 380.879 173.889H380.88H380.881H380.882H380.884L380.92 173.89C383.071 173.908 385.221 173.927 387.369 173.949V166.919C387.876 166.919 388.376 166.908 388.869 166.897L388.87 166.897H388.871C389.94 166.874 390.981 166.851 392.012 166.941C393.86 167.106 394.454 166.325 394.355 164.565C394.28 163.327 394.298 162.089 394.316 160.794V160.793V160.79V160.788V160.785V160.782V160.78V160.777C394.325 160.19 394.333 159.591 394.333 158.975H405.325V169.637C405.325 170.664 405.315 171.691 405.305 172.718V172.719C405.281 175.081 405.258 177.442 405.358 179.803C405.435 181.772 404.709 182.367 402.827 182.279C400.931 182.194 399.03 182.212 397.044 182.23H397.044H397.043H397.043H397.043H397.042H397.042H397.042H397.041H397.041H397.041H397.04H397.04H397.039H397.039H397.039L397.036 182.23C396.178 182.238 395.305 182.246 394.41 182.246V191.092H367.674V182.301C366.78 182.301 365.911 182.296 365.061 182.291H365.059C363.074 182.279 361.188 182.269 359.302 182.323C357.981 182.356 357.2 182.07 357.211 180.562C357.23 176.74 357.234 172.921 357.239 169.102C357.242 166.237 357.246 163.372 357.255 160.505C357.255 160.281 357.336 160.052 357.419 159.816L357.419 159.815L357.419 159.815L357.419 159.815L357.42 159.814L357.42 159.814L357.42 159.814L357.42 159.813C357.463 159.69 357.507 159.565 357.541 159.438C360.81 159.153 364.025 158.869 367.239 158.585ZM367.29 158.513H367.235L367.29 158.568V158.557V158.513ZM367.29 158.513H393.663C393.813 156.264 393.955 154.221 394.093 152.225L394.094 152.21C394.143 151.504 394.192 150.804 394.24 150.103C394.264 149.757 394.288 149.41 394.312 149.062H367.29V158.513ZM372.958 173.985C373.418 173.953 373.878 173.921 374.334 173.878C374.415 175.197 374.493 176.516 374.573 177.867L374.576 177.924L374.58 177.989L374.581 178.009C374.649 179.164 374.719 180.343 374.793 181.563H367.454C367.454 181.036 367.441 180.505 367.427 179.974C367.391 178.614 367.356 177.252 367.553 175.93C367.641 175.314 368.808 174.566 369.589 174.39C370.688 174.142 371.825 174.063 372.957 173.985L372.958 173.985ZM386.907 181.31C387.091 178.805 387.265 176.428 387.438 174.052C387.679 174.064 387.92 174.08 388.161 174.096C388.623 174.128 389.085 174.159 389.547 174.159C394.234 174.159 395.698 176.051 394.333 180.562C394.19 181.046 393.332 181.64 392.793 181.64C391.55 181.663 390.307 181.566 388.909 181.456L388.907 181.456L388.907 181.456C388.276 181.407 387.614 181.355 386.907 181.31ZM194.254 35.0662H162.16C162.16 36.9359 162.159 38.7971 162.158 40.6512V40.671V40.6908V40.7106V40.7304V40.7502V40.77V40.7899V40.8097V40.8295V40.8494V40.8693V40.8891V40.909V40.9289C162.153 49.9664 162.148 58.8384 162.248 67.7105C162.259 68.2386 163.612 69.1958 164.349 69.2068C172.941 69.3591 181.542 69.399 190.143 69.4388H190.144L192.295 69.4488C192.773 69.4488 193.245 69.3548 193.684 69.2675L193.684 69.2675L193.684 69.2675C193.882 69.2281 194.073 69.1901 194.254 69.1628V35.0662ZM173.316 54.8046H182.261H182.272C182.272 54.3675 182.275 53.9836 182.278 53.6335V53.6324V53.6313V53.6303V53.6294V53.6285V53.6272V53.6269V53.6265V53.6262V53.6259V53.6257V53.6254V53.6252V53.625V53.6248V53.6247V53.6245V53.6243V53.6242C182.282 53.0091 182.286 52.4985 182.272 51.988C182.177 48.4085 180.321 46.6114 176.705 46.5968H173.481C173.42 46.4514 173.357 46.3273 173.302 46.2171C173.198 46.0103 173.118 45.8525 173.118 45.6946C173.112 45.2596 173.104 44.8597 173.097 44.4921C173.051 42.0963 173.031 41.0711 173.527 40.6459C173.897 40.3278 174.556 40.3452 175.706 40.3757C176.364 40.3931 177.183 40.4147 178.201 40.3804C179.15 40.3516 180.099 40.3605 181.128 40.37H181.128H181.129H181.129H181.129H181.13H181.13H181.13H181.131H181.131H181.132H181.132H181.132H181.133H181.133H181.134C181.678 40.3751 182.244 40.3804 182.844 40.3804C182.943 42.5699 183.042 44.6163 183.141 46.6078C183.708 46.7012 184.272 46.77 184.825 46.8375L184.825 46.8375C186.226 47.0085 187.563 47.1717 188.731 47.708C189.085 47.867 189.054 48.8421 189.023 49.8512V49.8513C189.007 50.3787 188.99 50.9155 189.028 51.3498C189.305 54.6744 187.628 54.5457 185.876 54.4113C184.845 54.3322 183.787 54.251 183.086 54.8706C183.078 54.9863 183.068 55.1157 183.056 55.2556C183.02 55.688 182.976 56.22 182.976 56.752C182.971 57.3453 182.977 57.8625 182.981 58.3134C182.997 59.7562 183.005 60.5203 182.628 60.9242C182.203 61.3789 181.29 61.3771 179.348 61.3734C179.075 61.3729 178.781 61.3724 178.465 61.373C172.348 61.3951 172.304 61.329 173.316 54.8046ZM303.949 35.1101H334.92V69.1736H303.949V35.1101ZM329.386 54.8485H309.758C309.758 55.2449 309.771 55.6201 309.783 55.9794C309.809 56.7171 309.832 57.3881 309.736 58.0392C309.329 60.7238 310.429 61.571 313.059 61.4279C315.592 61.2902 318.13 61.3228 320.67 61.3554C321.782 61.3696 322.894 61.3839 324.006 61.3839C328.04 61.3839 329.834 59.2091 329.386 54.8595V54.8485ZM315.369 46.4096C323.192 47.1358 324.138 46.3216 322.565 40.5563H315.369V46.4096ZM376.729 256.963V224.979H346.792V256.963H376.729ZM356.243 235.002H371.008C371.008 235.512 371.023 235.999 371.037 236.47C371.07 237.575 371.101 238.585 370.931 239.557C370.832 240.163 369.908 241.054 369.336 241.065C364.154 241.197 358.961 241.23 353.767 241.131C353.195 241.12 352.227 240.218 352.139 239.634C351.534 235.388 351.919 235.002 356.243 235.002ZM303.971 261.826H334.821V295.538H303.971V261.826ZM328.396 287.429H322.48C321.713 281.878 322.716 281.041 328.396 282.544V287.429ZM322.433 287.484H316.546L316.539 287.325C316.455 285.5 316.39 284.106 316.315 282.566H309.824V287.616H315.831V292.545H322.433V287.484ZM325.587 273.089L325.583 273.089C324.591 273.042 323.631 272.996 322.642 272.95C322.574 271.813 322.514 270.769 322.452 269.69C322.414 269.024 322.376 268.346 322.334 267.624C321.778 267.655 321.238 267.672 320.71 267.688C319.525 267.726 318.402 267.761 317.306 267.943C316.711 268.042 315.71 268.945 315.776 269.308C316.524 273.324 314.06 273.335 311.298 273.104C310.951 273.073 310.598 273.142 310.233 273.212L310.232 273.213C310.066 273.245 309.897 273.278 309.725 273.302V277.912C313.7 278.3 316.051 277.028 316.777 274.094C320.144 273.91 322.125 275.19 322.719 277.934H328.429V273.225C327.423 273.177 326.491 273.133 325.587 273.089ZM194.409 295.439V261.683C192.673 261.683 190.945 261.683 189.223 261.682C180.632 261.679 172.194 261.676 163.756 261.749C163.283 261.749 162.402 262.673 162.402 263.18C162.33 268.677 162.298 274.171 162.265 279.666V279.666V279.667V279.668V279.669V279.669V279.67V279.671V279.671V279.672V279.673C162.238 284.249 162.21 288.825 162.16 293.403C162.138 295.219 162.777 295.736 164.548 295.725C170.642 295.675 176.741 295.676 182.839 295.677C186.164 295.677 189.489 295.677 192.813 295.67C193.171 295.67 193.529 295.601 193.902 295.53L193.903 295.53C194.068 295.498 194.236 295.466 194.409 295.439ZM169.29 275.059V288.001C169.625 288.015 169.937 288.02 170.232 288.025C170.849 288.035 171.395 288.044 171.931 288.133C174.516 288.551 175.385 287.352 175.231 284.909C175.179 284.014 175.244 283.108 175.309 282.22C175.338 281.81 175.368 281.403 175.385 281.003H182.922V288.122C183.254 288.182 183.545 288.242 183.808 288.296L183.809 288.296L183.81 288.296L183.811 288.296L183.812 288.297L183.814 288.297L183.815 288.297L183.817 288.297C184.325 288.402 184.732 288.486 185.144 288.507C188.808 288.672 188.995 288.474 189.006 284.755V278.704C189.006 276.107 187.756 274.772 185.255 274.699C184.786 274.684 184.323 274.631 183.803 274.571L183.802 274.571L183.799 274.57C183.538 274.54 183.263 274.508 182.966 274.479C182.966 273.973 182.978 273.479 182.991 272.997C183.02 271.844 183.047 270.752 182.9 269.682C182.812 269.011 182.064 267.955 181.536 267.9C180.056 267.747 178.552 267.77 177.038 267.794H177.037C176.48 267.803 175.922 267.812 175.363 267.812C175.321 268.599 175.352 269.389 175.382 270.137C175.445 271.721 175.5 273.122 174.835 273.929C174.224 274.676 172.822 274.766 171.324 274.862C170.644 274.906 169.944 274.95 169.29 275.059ZM230.771 71.4512C230.771 69.2951 230.779 67.181 230.787 65.097V65.0967V65.0964V65.0961V65.0959V65.0956V65.0953V65.095V65.0947V65.0945C230.807 59.8736 230.826 54.8415 230.716 49.8095C230.672 47.554 231.398 47.0148 233.522 47.0588C238.433 47.1458 243.35 47.1305 248.321 47.115H248.322C250.266 47.1089 252.22 47.1029 254.184 47.1029V58.2263C253.389 58.2263 252.589 58.2393 251.786 58.2523C249.921 58.2825 248.04 58.313 246.164 58.1823C243.622 58.0063 242.643 58.7214 242.742 61.483C242.889 65.8105 242.862 70.138 242.832 74.6553L242.832 74.6628V74.6637V74.6646V74.6654V74.6663V74.6673V74.6682V74.6691V74.67C242.82 76.5452 242.808 78.453 242.808 80.4072C241.214 80.5905 239.635 80.7699 238.055 80.9495L238.048 80.9503L238.044 80.9506L238.04 80.9511C235.829 81.2023 233.616 81.4538 231.354 81.7165V90.2874H216.105V71.4623H230.771V71.4512ZM150.014 111.28V81.6284H119.482V111.28H150.014ZM144.753 98.2541C144.738 98.7746 144.721 99.3183 144.721 99.8924C143.237 99.8924 141.781 99.8953 140.345 99.8982C135.556 99.9079 131.003 99.917 126.457 99.8154C125.863 99.8044 125.06 98.7482 124.796 98.011C124.615 97.4967 124.654 96.9122 124.693 96.3212C124.716 95.9766 124.739 95.6298 124.719 95.2934C124.62 93.7861 125.269 93.1259 126.787 93.1369C128.581 93.1516 130.374 93.1553 132.168 93.1589H132.169C135.755 93.1663 139.342 93.1736 142.928 93.269C143.544 93.28 144.523 94.2812 144.644 94.9523C144.821 95.987 144.789 97.0591 144.753 98.2541ZM376.741 111.346H346.803V81.5293C348.544 81.5293 350.28 81.5285 352.011 81.5278C359.779 81.5245 367.464 81.5213 375.156 81.5843C375.684 81.5843 376.664 82.4425 376.675 82.9046C376.748 90.7377 376.745 98.5708 376.742 106.531C376.741 108.13 376.741 109.735 376.741 111.346ZM352.601 98.7591C352.361 95.0694 354.378 93.2463 358.654 93.2899C358.656 93.4974 358.659 93.7047 358.662 93.9119L358.671 94.526C358.689 95.8233 358.708 97.1176 358.708 98.418C358.708 98.587 358.654 98.756 358.585 98.9708C358.551 99.0777 358.513 99.196 358.477 99.3312H352.942C352.883 99.2392 352.826 99.1619 352.775 99.094L352.775 99.0933C352.674 98.9588 352.601 98.8614 352.601 98.7591ZM358.73 93.2248H364.737C364.764 93.0106 364.79 92.8035 364.816 92.6034C365.163 89.8685 365.345 88.4337 364.715 87.7705C364.02 87.0386 362.335 87.2462 358.793 87.6829L358.73 87.6906V93.2248ZM364.704 105.889V99.9693H358.785V105.889H364.704ZM370.777 99.3422L370.823 99.0031L370.872 98.636C371.636 92.9473 371.656 92.7998 365.265 93.7309V99.3422H370.777ZM119.35 224.979V256.974H149.86V224.979H119.35ZM128.427 234.067H131.045L131.034 234.089V239.469H138.241V234.21H131.497V227.708H138.989V233.429C139.155 233.555 139.273 233.662 139.366 233.746C139.5 233.867 139.58 233.94 139.671 233.946C142.906 234.284 144.523 236.114 144.523 239.436C144.523 240.287 144.509 241.139 144.494 241.991V241.991V241.992V241.992V241.992V241.993V241.993V241.993C144.459 243.983 144.424 245.973 144.578 247.952C144.781 250.525 143.343 250.552 141.705 250.583L141.702 250.583C141.633 250.585 141.563 250.586 141.493 250.587L141.392 250.59C141.354 250.591 141.316 250.592 141.278 250.593C139.517 250.637 138.109 250.439 138.428 248.106C138.492 247.649 138.478 247.174 138.46 246.581C138.45 246.26 138.439 245.904 138.439 245.499C137.827 245.499 137.225 245.488 136.63 245.478C135.011 245.45 133.449 245.424 131.904 245.609C131.464 245.664 130.836 247.149 130.891 247.93C131.067 250.263 129.978 250.703 127.943 250.659C125.907 250.604 124.598 250.263 124.697 247.787C124.789 245.415 124.769 243.037 124.748 240.661L124.748 240.661C124.739 239.643 124.73 238.626 124.73 237.61C124.737 235.226 125.97 234.045 128.427 234.067ZM240.937 11.4217H230.804C230.804 13.3578 230.81 15.2713 230.816 17.1683L230.816 17.1762V17.1766V17.1771V17.1775V17.1779C230.831 22.0044 230.846 26.7253 230.76 31.4461C230.716 33.7016 231.376 34.4608 233.697 34.4278C240.335 34.3471 246.978 34.3446 253.619 34.3422H253.62H253.62H253.62H253.62H253.624C256.943 34.341 260.262 34.3397 263.58 34.3288C264.207 34.3288 264.828 34.2634 265.452 34.1979L265.452 34.1979C265.715 34.1702 265.978 34.1426 266.242 34.1197V11.4547H256.208V19.4315L260.29 19.6845V27.5733C256.593 28.072 254.51 26.9424 254.041 24.1845H243.511C243.447 24.5686 243.439 24.9709 243.43 25.3629C243.4 26.7225 243.372 27.9582 241.058 27.8813C240.88 27.8756 240.711 27.8705 240.55 27.8657C237.317 27.7692 237.317 27.7692 237.317 24.1955V20.3667L237.605 20.2893C238.84 19.958 239.936 19.664 240.937 19.3984V11.4217ZM198.567 207.309H210.384V220.017C210.384 221.488 210.397 222.958 210.41 224.428C210.44 227.82 210.47 231.211 210.34 234.595C210.241 237.203 211 238.369 213.674 237.995C214.081 237.936 214.502 237.986 214.972 238.042C215.202 238.07 215.442 238.098 215.698 238.116V244.333H198.556V207.309H198.567ZM198.281 111.919V111.929H198.292L198.281 111.919ZM198.281 111.841V111.919L198.193 111.841H198.281ZM198.281 111.841V91.2446H215.753V94.7214C215.513 94.7462 215.28 94.7741 215.049 94.8016C214.667 94.8473 214.293 94.8919 213.916 94.9194C211.528 95.0844 210.296 96.2067 210.351 98.7593C210.412 101.74 210.399 104.722 210.385 107.784C210.379 109.119 210.373 110.469 210.373 111.841H198.281ZM251.995 13.0945H245.657C244.446 19.4167 244.758 19.3814 251.117 18.6616C251.397 18.6298 251.69 18.5967 251.995 18.5627V13.0945Z" fill="url(#paint0_linear_275_7)"/>
<mask id="mask0_275_7" style="mask-type:alpha" maskUnits="userSpaceOnUse" x="165" y="43" width="174" height="104">
<path d="M218.158 43H281.658L338.658 147H165.158L218.158 43Z" fill="#D9D9D9"/>
</mask>
<g mask="url(#mask0_275_7)">
<path fill-rule="evenodd" clip-rule="evenodd" d="M254.35 0.848633V11.4C254.177 10.643 254.046 10.0667 253.926 9.53405C253.801 8.98275 253.686 8.47812 253.547 7.86819C252.831 7.86819 252.101 7.85003 251.362 7.83165C249.464 7.78447 247.508 7.73584 245.592 7.98921C244.956 8.06873 244.395 8.74196 243.718 9.55639C243.364 9.98152 242.978 10.4451 242.533 10.8829C242.662 9.32751 242.787 7.84044 242.908 6.39203C243.067 4.50026 243.22 2.67444 243.369 0.848633H254.35ZM95.8655 159.149L94 159.284V181.839C97.4108 182.092 100.822 182.345 104.507 182.62V191.114H129.329C129.38 190.127 129.43 189.158 129.48 188.19L129.48 188.188L129.48 188.18L129.481 188.172L129.481 188.167C129.581 186.228 129.681 184.288 129.791 182.202H140.496V158.855H136.282H136.282C129.989 158.888 129.956 158.888 129.846 165.027C129.813 166.732 129.373 167.612 127.48 167.447C126.374 167.35 125.258 167.37 124.021 167.393H124.021H124.02H124.02H124.019H124.019H124.018H124.017H124.017H124.016H124.016H124.015H124.014H124.014H124.013H124.012H124.011H124.011H124.01C123.442 167.403 122.85 167.414 122.221 167.414V181.762H112.099V166.897H122.111V158.524H129.461V148.765H104.364V158.535C101.363 158.75 98.5956 158.951 95.8655 159.149ZM198.336 305.253V325.42V325.431H275.221C276.143 325.393 277.065 325.347 277.989 325.3C279.975 325.201 281.963 325.102 283.946 325.079C287.451 325.041 290.957 325.05 294.488 325.06H294.49H294.491H294.493H294.494H294.495H294.497H294.498H294.5H294.501H294.503H294.504H294.505H294.507H294.508H294.51H294.511H294.512H294.514C296.094 325.064 297.679 325.068 299.272 325.068V305.242H287.345V314.913H210.262V305.253H198.336ZM198.182 111.85V111.841L198.16 111.83L198.182 111.85ZM198.182 111.936V111.85L198.259 111.918L198.229 111.925L198.182 111.936ZM299.46 112.034C300.236 112.082 301.012 112.132 301.789 112.182L301.796 112.183C303.691 112.305 305.586 112.428 307.48 112.512C308.643 112.565 309.811 112.551 311.035 112.537C311.618 112.53 312.214 112.523 312.828 112.523V130.534C312.828 130.84 312.767 131.15 312.707 131.459C312.661 131.694 312.616 131.93 312.597 132.163C312.332 135.463 312.486 135.628 315.699 135.628H325.458C325.486 135.876 325.522 136.112 325.556 136.34L325.556 136.341L325.557 136.341L325.557 136.341C325.619 136.754 325.678 137.143 325.678 137.532C325.675 142.238 325.665 146.944 325.655 151.649V151.658C325.636 161.066 325.616 170.473 325.645 179.88C325.645 181.817 325.084 182.444 323.159 182.367C320.883 182.275 318.602 182.295 316.224 182.316H316.223H316.223H316.222H316.222H316.222H316.221H316.221H316.221H316.22H316.22H316.219H316.219H316.219H316.218H316.218H316.218H316.216C315.17 182.325 314.106 182.334 313.015 182.334V206.594C311.865 206.594 310.74 206.607 309.635 206.62C307.06 206.649 304.586 206.678 302.122 206.539C299.9 206.418 299.317 207.155 299.339 209.334C299.412 217.161 299.401 224.995 299.39 232.83V232.831V232.832V232.832V232.833V232.833V232.834V232.835V232.835V232.836V232.836V232.837V232.837V232.838V232.839V232.839V232.84C299.386 235.64 299.383 238.44 299.383 241.241V244.531C297.921 244.531 296.479 244.542 295.05 244.553L295.046 244.554C291.637 244.581 288.306 244.607 284.98 244.476C282.395 244.377 281.592 245.268 281.768 247.787C281.911 249.843 281.878 251.909 281.844 254.086V254.086V254.086V254.087V254.087V254.087V254.087V254.088V254.088V254.088V254.089V254.089V254.089V254.089V254.09V254.09C281.828 255.081 281.812 256.094 281.812 257.139C280.55 257.139 279.305 257.148 278.071 257.156H278.066H278.061H278.056H278.051H278.046H278.042H278.037H278.032H278.027H278.022H278.017H278.013H278.008H278.007H278.006H278.005H278.005H278.004H278.003H278.002H278.001H278H278H277.999H277.998H277.997H277.996H277.995H277.995C274.974 257.177 272.022 257.196 269.071 257.095C267.013 257.029 266.298 257.723 266.397 259.758C266.54 262.41 266.507 265.072 266.419 267.735C266.364 269.726 267.112 270.485 269.17 270.419C272.202 270.326 275.24 270.343 278.386 270.361C279.669 270.368 280.97 270.375 282.296 270.375C282.296 271.644 282.295 272.897 282.293 274.138C282.291 276.59 282.288 279.001 282.296 281.411C282.305 283.078 281.259 283.046 280.242 283.014L280.24 283.014C280.084 283.009 279.928 283.005 279.776 283.006C274.957 283.013 270.138 283.011 265.319 283.009C262.91 283.007 260.5 283.006 258.09 283.006H254.603C254.603 283.781 254.597 284.538 254.59 285.283V285.283V285.283V285.283V285.284V285.284V285.284V285.285V285.285V285.285V285.285V285.286V285.286V285.286V285.286V285.287V285.287C254.577 286.98 254.564 288.608 254.625 290.235C254.691 291.929 254.24 292.765 252.347 292.688C250.257 292.604 248.162 292.621 245.954 292.639H245.954H245.953H245.952H245.951H245.95H245.949H245.949H245.948H245.947H245.946H245.945H245.944H245.943H245.942H245.941H245.94C244.979 292.647 243.997 292.655 242.984 292.655V283.138H216.182V270.375C217.346 270.375 218.512 270.366 219.679 270.358H219.68H219.681H219.683H219.684H219.685H219.686H219.687H219.688H219.689H219.691H219.692H219.693H219.694H219.695H219.696H219.697C222.418 270.337 225.145 270.316 227.867 270.408C230.111 270.485 230.969 269.759 230.837 267.427C230.708 265.163 230.737 262.888 230.766 260.495V260.494V260.494V260.493V260.493V260.493V260.492V260.492V260.491V260.491V260.491V260.49V260.49V260.49V260.489V260.489V260.488C230.78 259.418 230.793 258.323 230.793 257.194H216.116V244.641C217.395 244.641 218.666 244.644 219.931 244.648C223.073 244.657 226.18 244.666 229.286 244.619C230.881 244.597 231.333 245.29 231.289 246.786C231.252 248.093 231.263 249.399 231.273 250.706C231.285 252.15 231.296 253.594 231.244 255.038C231.178 256.732 231.828 257.304 233.478 257.26C235.561 257.199 237.638 257.212 239.827 257.226C240.796 257.232 241.786 257.238 242.808 257.238C242.808 258.299 242.815 259.339 242.821 260.365C242.837 262.81 242.853 265.173 242.775 267.537C242.72 269.33 243.347 269.979 245.152 269.913C247.254 269.836 249.356 269.851 251.561 269.867H251.564C252.497 269.873 253.449 269.88 254.427 269.88V257.238C255.443 257.238 256.433 257.23 257.403 257.223C259.647 257.204 261.79 257.187 263.933 257.271C265.836 257.337 266.551 256.666 266.485 254.741C266.408 252.504 266.423 250.255 266.439 247.916C266.446 246.93 266.452 245.929 266.452 244.905H281.35C281.35 244.391 281.361 243.903 281.372 243.434C281.396 242.459 281.417 241.564 281.328 240.68C281.119 238.578 282.054 237.775 284.023 238.039C286.62 238.402 287.434 237.39 287.39 234.727C287.27 228.166 287.289 221.599 287.309 214.884V214.883V214.883V214.882V214.881V214.881V214.88V214.879V214.878V214.878V214.877V214.876V214.876V214.875V214.874V214.874V214.873C287.316 212.324 287.324 209.754 287.324 207.155C288.279 207.155 289.221 207.145 290.152 207.135H290.153H290.155H290.156H290.158H290.16H290.161H290.163H290.164H290.166H290.167H290.169H290.171H290.172H290.174H290.175H290.177H290.178C292.303 207.112 294.374 207.089 296.434 207.188C298.623 207.298 299.504 206.682 299.46 204.295C299.356 199.209 299.373 194.123 299.391 188.892V188.891C299.398 186.869 299.405 184.825 299.405 182.752H198.281V206.451H185.342V182.433H172.701V135.639C173.676 135.639 174.655 135.632 175.637 135.624C177.978 135.606 180.334 135.587 182.691 135.672C184.594 135.739 185.254 135.111 185.221 133.164C185.149 128.195 185.159 123.226 185.17 118.126V118.125V118.121V118.118V118.114V118.111V118.107V118.104V118.1V118.096V118.093V118.089V118.086V118.082V118.078V118.074V118.071C185.173 116.244 185.177 114.401 185.177 112.534C186.128 112.534 187.065 112.538 187.991 112.541H187.993H187.995H187.996H187.998H187.999H188.001H188.003H188.004H188.006H188.007H188.009H188.01H188.012H188.013C190.54 112.549 192.989 112.558 195.432 112.501C196.096 112.486 196.76 112.308 197.421 112.131C197.675 112.062 197.929 111.994 198.182 111.936V134.88H185.76V146.829H312.354C312.354 145.956 312.358 145.101 312.362 144.26V144.257V144.255V144.253V144.251V144.249V144.247V144.244V144.242V144.24V144.238V144.236V144.234V144.232C312.373 141.456 312.384 138.828 312.266 136.201C312.244 135.783 310.968 135.122 310.253 135.1C307.671 135.018 305.089 135.028 302.343 135.038C301.403 135.042 300.444 135.045 299.46 135.045V112.034ZM299.36 111.94H299.448H299.449L299.46 111.929V112.034L299.371 112.029L299.36 112.039V111.94ZM299.36 111.94H287.379C287.379 110.448 287.381 108.983 287.384 107.536C287.388 104.695 287.393 101.922 287.379 99.1443C287.357 95.7116 286.993 95.2275 283.66 95.2825C281.811 95.3045 281.184 94.6553 281.371 92.884C281.424 92.4119 281.374 91.9245 281.32 91.3905L281.32 91.3895L281.319 91.3882L281.319 91.3879C281.294 91.1387 281.268 90.8792 281.25 90.6065C280.752 90.5785 280.269 90.5521 279.774 90.5249C278.905 90.4772 277.998 90.4275 276.904 90.3644C276.904 89.9009 276.898 89.4394 276.892 88.9793V88.979V88.9788V88.9785V88.9782V88.978C276.878 87.9094 276.865 86.8484 276.926 85.7874C277.025 83.961 276.354 82.8167 274.484 82.4977C274.318 82.47 274.156 82.412 273.994 82.3536C273.897 82.319 273.801 82.2842 273.703 82.2556L273.657 82.243C266.705 80.2971 266.65 80.2817 266.507 73.1126C266.474 71.3412 265.946 70.659 264.13 70.7361C262.092 70.8207 260.048 70.8031 257.93 70.7849H257.93H257.93H257.93H257.929H257.929L257.927 70.7848C257.018 70.777 256.094 70.7691 255.152 70.7691V58.8204H266.661V71.3082C267.941 71.3082 269.2 71.3198 270.443 71.3312H270.443H270.444H270.445H270.446H270.446C273.402 71.3584 276.27 71.3848 279.127 71.2532C281.624 71.1431 282.482 71.8473 282.383 74.4659C282.235 78.2817 282.264 82.103 282.293 86.0313V86.0314V86.0316V86.0318V86.0319V86.0331V86.0338V86.0344V86.035V86.0357V86.0364C282.305 87.6565 282.317 89.2949 282.317 90.9585H299.36V111.94ZM185.551 161.48V161.48V161.48V161.48V161.48V161.48V161.48V161.479V161.479V161.479V161.479V161.479V161.479V161.479C185.557 160.608 185.562 159.73 185.562 158.844L312.343 158.855V168.9C312.354 170.209 311.903 170.803 310.396 170.803C287.25 170.796 264.109 170.811 240.967 170.826C227.08 170.834 213.193 170.843 199.304 170.847C195.377 170.847 191.438 170.803 187.521 170.594C186.85 170.561 185.683 169.648 185.65 169.098C185.519 166.589 185.535 164.068 185.551 161.484V161.483V161.483V161.483V161.483V161.482V161.482V161.482V161.482V161.482V161.481V161.481V161.481V161.481V161.48ZM367.234 158.524V158.502L367.235 158.513L367.236 158.525L367.234 158.524ZM367.239 158.585L367.236 158.525L367.3 158.579L367.27 158.582L367.239 158.585ZM367.239 158.585C367.337 160.379 367.44 162.171 367.551 164.114L367.555 164.173C367.604 165.029 367.655 165.914 367.707 166.842C368.211 166.842 368.718 166.849 369.227 166.856C370.396 166.873 371.574 166.889 372.747 166.82C374.188 166.732 374.76 167.282 374.661 168.702C374.574 169.929 374.516 171.162 374.458 172.397L374.457 172.403L374.456 172.438C374.434 172.901 374.412 173.365 374.388 173.829C376.55 173.851 378.714 173.87 380.879 173.889H380.88H380.881H380.882H380.884L380.92 173.89C383.071 173.908 385.221 173.927 387.369 173.949V166.919C387.876 166.919 388.376 166.908 388.869 166.897L388.87 166.897H388.871C389.94 166.874 390.981 166.851 392.012 166.941C393.86 167.106 394.454 166.325 394.355 164.565C394.28 163.327 394.298 162.089 394.316 160.794V160.793V160.79V160.788V160.785V160.782V160.78V160.777C394.325 160.19 394.333 159.591 394.333 158.975H405.325V169.637C405.325 170.664 405.315 171.691 405.305 172.718V172.719C405.281 175.081 405.258 177.442 405.358 179.803C405.435 181.772 404.709 182.367 402.827 182.279C400.931 182.194 399.03 182.212 397.044 182.23H397.044H397.043H397.043H397.043H397.042H397.042H397.042H397.041H397.041H397.041H397.04H397.04H397.039H397.039H397.039L397.036 182.23C396.178 182.238 395.305 182.246 394.41 182.246V191.092H367.674V182.301C366.78 182.301 365.911 182.296 365.061 182.291H365.059C363.074 182.279 361.188 182.269 359.302 182.323C357.981 182.356 357.2 182.07 357.211 180.562C357.23 176.74 357.234 172.921 357.239 169.102C357.242 166.237 357.246 163.372 357.255 160.505C357.255 160.281 357.336 160.052 357.419 159.816L357.419 159.815L357.419 159.815L357.419 159.815L357.42 159.814L357.42 159.814L357.42 159.814L357.42 159.813C357.463 159.69 357.507 159.565 357.541 159.438C360.81 159.153 364.025 158.869 367.239 158.585ZM367.29 158.513H367.235L367.29 158.568V158.557V158.513ZM367.29 158.513H393.663C393.813 156.264 393.955 154.221 394.093 152.225L394.094 152.21C394.143 151.504 394.192 150.804 394.24 150.103C394.264 149.757 394.288 149.41 394.312 149.062H367.29V158.513ZM372.958 173.985C373.418 173.953 373.878 173.921 374.334 173.878C374.415 175.197 374.493 176.516 374.573 177.867L374.576 177.924L374.58 177.989L374.581 178.009C374.649 179.164 374.719 180.343 374.793 181.563H367.454C367.454 181.036 367.441 180.505 367.427 179.974C367.391 178.614 367.356 177.252 367.553 175.93C367.641 175.314 368.808 174.566 369.589 174.39C370.688 174.142 371.825 174.063 372.957 173.985L372.958 173.985ZM386.907 181.31C387.091 178.805 387.265 176.428 387.438 174.052C387.679 174.064 387.92 174.08 388.161 174.096C388.623 174.128 389.085 174.159 389.547 174.159C394.234 174.159 395.698 176.051 394.333 180.562C394.19 181.046 393.332 181.64 392.793 181.64C391.55 181.663 390.307 181.566 388.909 181.456L388.907 181.456L388.907 181.456C388.276 181.407 387.614 181.355 386.907 181.31ZM194.254 35.0662H162.16C162.16 36.9359 162.159 38.7971 162.158 40.6512V40.671V40.6908V40.7106V40.7304V40.7502V40.77V40.7899V40.8097V40.8295V40.8494V40.8693V40.8891V40.909V40.9289C162.153 49.9664 162.148 58.8384 162.248 67.7105C162.259 68.2386 163.612 69.1958 164.349 69.2068C172.94 69.3591 181.541 69.399 190.142 69.4388H190.143L190.146 69.4388L192.295 69.4488C192.773 69.4488 193.246 69.3548 193.684 69.2675C193.882 69.2281 194.073 69.1901 194.254 69.1628V35.0662ZM173.316 54.8046H182.261H182.272C182.272 54.3675 182.275 53.9836 182.278 53.6335V53.6324V53.6313V53.6303V53.6294V53.6285V53.6272V53.6269V53.6265V53.6262V53.6259V53.6257V53.6254V53.6252V53.625V53.6248V53.6247V53.6245V53.6243V53.6242C182.282 53.0091 182.286 52.4985 182.272 51.988C182.177 48.4085 180.321 46.6114 176.705 46.5968H173.481C173.42 46.4514 173.357 46.3273 173.302 46.2171L173.302 46.217C173.198 46.0103 173.118 45.8524 173.118 45.6946C173.112 45.2596 173.104 44.8597 173.097 44.4921C173.051 42.0963 173.031 41.0711 173.527 40.6459C173.897 40.3278 174.556 40.3452 175.706 40.3757C176.364 40.3931 177.183 40.4147 178.201 40.3804C179.15 40.3516 180.099 40.3605 181.128 40.37H181.128H181.129H181.129H181.129H181.13H181.13H181.13H181.131H181.131H181.132H181.132H181.132H181.133H181.133H181.134C181.678 40.3751 182.244 40.3804 182.844 40.3804C182.943 42.5699 183.042 44.6163 183.141 46.6078C183.708 46.7012 184.272 46.77 184.825 46.8375L184.825 46.8375C186.226 47.0085 187.563 47.1717 188.731 47.708C189.085 47.867 189.054 48.8421 189.023 49.8512V49.8512C189.007 50.3787 188.99 50.9155 189.028 51.3498C189.305 54.6744 187.628 54.5457 185.876 54.4113C184.845 54.3322 183.787 54.251 183.086 54.8706C183.078 54.9863 183.068 55.1157 183.056 55.2556C183.02 55.688 182.976 56.22 182.976 56.752C182.971 57.3453 182.977 57.8625 182.981 58.3134C182.997 59.7562 183.005 60.5203 182.628 60.9242C182.203 61.3789 181.29 61.3771 179.348 61.3734C179.075 61.3729 178.781 61.3724 178.465 61.373C172.348 61.3951 172.304 61.329 173.316 54.8046ZM303.949 35.1101H334.92V69.1736H303.949V35.1101ZM329.386 54.8485H309.758C309.758 55.2449 309.771 55.6201 309.783 55.9794C309.809 56.7171 309.832 57.3881 309.736 58.0392C309.329 60.7238 310.429 61.571 313.059 61.4279C315.592 61.2902 318.13 61.3228 320.67 61.3554C321.782 61.3696 322.894 61.3839 324.006 61.3839C328.04 61.3839 329.834 59.2091 329.386 54.8595V54.8485ZM315.369 46.4096C323.192 47.1358 324.138 46.3216 322.565 40.5563H315.369V46.4096ZM376.729 256.963V224.979H346.792V256.963H376.729ZM356.243 235.002H371.008C371.008 235.512 371.023 235.999 371.037 236.47C371.07 237.575 371.101 238.585 370.931 239.557C370.832 240.163 369.908 241.054 369.336 241.065C364.154 241.197 358.961 241.23 353.767 241.131C353.195 241.12 352.227 240.218 352.139 239.634C351.534 235.388 351.919 235.002 356.243 235.002ZM303.971 261.826H334.821V295.538H303.971V261.826ZM328.396 287.429H322.48C321.713 281.878 322.716 281.041 328.396 282.544V287.429ZM322.433 287.484H316.546L316.539 287.325C316.455 285.5 316.39 284.106 316.315 282.566H309.824V287.616H315.831V292.545H322.433V287.484ZM325.587 273.089L325.583 273.089C324.591 273.042 323.631 272.996 322.642 272.95C322.574 271.813 322.514 270.769 322.452 269.69C322.414 269.024 322.376 268.346 322.334 267.624C321.778 267.655 321.238 267.672 320.71 267.688C319.525 267.726 318.402 267.761 317.306 267.943C316.711 268.042 315.71 268.945 315.776 269.308C316.524 273.324 314.06 273.335 311.298 273.104C310.951 273.073 310.598 273.142 310.233 273.212L310.232 273.213C310.066 273.245 309.897 273.278 309.725 273.302V277.912C313.7 278.3 316.051 277.028 316.777 274.094C320.144 273.91 322.125 275.19 322.719 277.934H328.429V273.225C327.423 273.177 326.491 273.133 325.587 273.089ZM194.409 295.439V261.683C192.673 261.683 190.945 261.683 189.223 261.682C180.632 261.679 172.194 261.676 163.756 261.749C163.283 261.749 162.402 262.673 162.402 263.18C162.33 268.677 162.298 274.171 162.265 279.666V279.666V279.667V279.668V279.669V279.669V279.67V279.671V279.671V279.672V279.673C162.238 284.249 162.21 288.825 162.16 293.403C162.138 295.219 162.777 295.736 164.548 295.725C170.642 295.675 176.741 295.676 182.839 295.677C186.164 295.677 189.489 295.677 192.813 295.67C193.171 295.67 193.529 295.601 193.902 295.53L193.903 295.53C194.068 295.498 194.236 295.466 194.409 295.439ZM169.29 275.059V288.001C169.625 288.015 169.937 288.02 170.232 288.025C170.849 288.035 171.395 288.044 171.931 288.133C174.516 288.551 175.385 287.352 175.231 284.909C175.179 284.014 175.244 283.108 175.309 282.22C175.338 281.81 175.368 281.403 175.385 281.003H182.922V288.122C183.254 288.182 183.545 288.242 183.808 288.296L183.809 288.296L183.81 288.296L183.811 288.296L183.812 288.297L183.814 288.297L183.815 288.297L183.817 288.297C184.325 288.402 184.732 288.486 185.144 288.507C188.808 288.672 188.995 288.474 189.006 284.755V278.704C189.006 276.107 187.756 274.772 185.255 274.699C184.786 274.684 184.323 274.631 183.803 274.571L183.802 274.571L183.799 274.57C183.538 274.54 183.263 274.508 182.966 274.479C182.966 273.973 182.978 273.479 182.991 272.997C183.02 271.844 183.047 270.752 182.9 269.682C182.812 269.011 182.064 267.955 181.536 267.9C180.056 267.747 178.552 267.77 177.038 267.794H177.037C176.48 267.803 175.922 267.812 175.363 267.812C175.321 268.599 175.352 269.389 175.382 270.137C175.445 271.721 175.5 273.122 174.835 273.929C174.224 274.676 172.822 274.766 171.324 274.862C170.644 274.906 169.944 274.95 169.29 275.059ZM230.771 71.4512C230.771 69.2951 230.779 67.181 230.787 65.097V65.0967V65.0964V65.0961V65.0959V65.0956V65.0953V65.095V65.0947V65.0945C230.807 59.8736 230.826 54.8415 230.716 49.8095C230.672 47.554 231.398 47.0148 233.522 47.0588C238.433 47.1458 243.35 47.1305 248.321 47.115H248.322C250.266 47.1089 252.22 47.1029 254.184 47.1029V58.2263C253.389 58.2263 252.589 58.2393 251.786 58.2523C249.921 58.2825 248.04 58.313 246.164 58.1823C243.622 58.0063 242.643 58.7214 242.742 61.483C242.889 65.8105 242.862 70.138 242.832 74.6553L242.832 74.6628V74.6637V74.6646V74.6654V74.6663V74.6673V74.6682V74.6691V74.67C242.82 76.5452 242.808 78.453 242.808 80.4072C241.214 80.5905 239.635 80.7699 238.055 80.9495L238.048 80.9503L238.044 80.9506L238.04 80.9511C235.829 81.2023 233.616 81.4538 231.354 81.7165V90.2874H216.105V71.4623H230.771V71.4512ZM150.014 111.28V81.6284H119.482V111.28H150.014ZM144.753 98.2541C144.738 98.7746 144.721 99.3183 144.721 99.8924C143.237 99.8924 141.781 99.8953 140.345 99.8982C135.556 99.9079 131.003 99.917 126.457 99.8154C125.863 99.8044 125.06 98.7482 124.796 98.011C124.615 97.4967 124.654 96.9122 124.693 96.3212C124.716 95.9766 124.739 95.6298 124.719 95.2934C124.62 93.7861 125.269 93.1259 126.787 93.1369C128.581 93.1516 130.374 93.1553 132.168 93.1589H132.169C135.755 93.1663 139.342 93.1736 142.928 93.269C143.544 93.28 144.523 94.2812 144.644 94.9523C144.821 95.987 144.789 97.0591 144.753 98.2541ZM376.741 111.346H346.803V81.5293C348.544 81.5293 350.28 81.5285 352.011 81.5278C359.779 81.5245 367.464 81.5213 375.156 81.5843C375.684 81.5843 376.664 82.4425 376.675 82.9046C376.748 90.7377 376.745 98.5708 376.742 106.531C376.741 108.13 376.741 109.735 376.741 111.346ZM352.601 98.7591C352.361 95.0694 354.378 93.2463 358.654 93.2899C358.656 93.4974 358.659 93.7047 358.662 93.9119L358.671 94.526C358.689 95.8233 358.708 97.1176 358.708 98.418C358.708 98.587 358.654 98.756 358.585 98.9708C358.551 99.0777 358.513 99.196 358.477 99.3312H352.942C352.883 99.2392 352.826 99.1619 352.775 99.094L352.775 99.0933C352.674 98.9588 352.601 98.8614 352.601 98.7591ZM358.73 93.2248H364.737C364.764 93.0106 364.79 92.8035 364.816 92.6034C365.163 89.8685 365.345 88.4337 364.715 87.7705C364.02 87.0386 362.335 87.2462 358.793 87.6829L358.73 87.6906V93.2248ZM364.704 105.889V99.9693H358.785V105.889H364.704ZM370.777 99.3422L370.823 99.0031L370.872 98.636C371.636 92.9473 371.656 92.7998 365.265 93.7309V99.3422H370.777ZM119.35 224.979V256.974H149.86V224.979H119.35ZM128.427 234.067H131.045L131.034 234.089V239.469H138.241V234.21H131.497V227.708H138.989V233.429C139.155 233.555 139.273 233.662 139.366 233.746C139.5 233.867 139.58 233.94 139.671 233.946C142.906 234.284 144.523 236.114 144.523 239.436C144.523 240.287 144.509 241.139 144.494 241.991V241.991V241.992V241.992V241.992V241.993V241.993V241.993C144.459 243.983 144.424 245.973 144.578 247.952C144.781 250.525 143.343 250.552 141.705 250.583L141.702 250.583C141.633 250.585 141.563 250.586 141.493 250.587L141.392 250.59C141.354 250.591 141.316 250.592 141.278 250.593C139.517 250.637 138.109 250.439 138.428 248.106C138.492 247.649 138.478 247.174 138.46 246.581C138.45 246.26 138.439 245.904 138.439 245.499C137.827 245.499 137.225 245.488 136.63 245.478C135.011 245.45 133.449 245.424 131.904 245.609C131.464 245.664 130.836 247.149 130.891 247.93C131.067 250.263 129.978 250.703 127.943 250.659C125.907 250.604 124.598 250.263 124.697 247.787C124.789 245.415 124.769 243.037 124.748 240.661L124.748 240.661C124.739 239.643 124.73 238.626 124.73 237.61C124.737 235.226 125.97 234.045 128.427 234.067ZM240.937 11.4217H230.804C230.804 13.3578 230.81 15.2713 230.816 17.1683L230.816 17.1762V17.1766V17.1771V17.1775V17.1779C230.831 22.0044 230.846 26.7253 230.76 31.4461C230.716 33.7016 231.376 34.4608 233.697 34.4278C240.335 34.3471 246.978 34.3446 253.619 34.3422H253.62H253.62H253.62H253.62H253.624C256.943 34.341 260.262 34.3397 263.58 34.3288C264.207 34.3288 264.828 34.2634 265.452 34.1979L265.452 34.1979C265.715 34.1702 265.978 34.1426 266.242 34.1197V11.4547H256.208V19.4315L260.29 19.6845V27.5733C256.593 28.072 254.51 26.9424 254.041 24.1845H243.511C243.447 24.5686 243.439 24.9709 243.43 25.3629C243.4 26.7225 243.372 27.9582 241.058 27.8813C240.88 27.8756 240.711 27.8705 240.55 27.8657C237.317 27.7692 237.317 27.7692 237.317 24.1955V20.3667L237.605 20.2893C238.84 19.958 239.936 19.664 240.937 19.3984V11.4217ZM198.567 207.309H210.384V220.017C210.384 221.488 210.397 222.958 210.41 224.428C210.44 227.82 210.47 231.211 210.34 234.595C210.241 237.203 211 238.369 213.674 237.995C214.081 237.936 214.502 237.986 214.972 238.042C215.202 238.07 215.442 238.098 215.698 238.116V244.333H198.556V207.309H198.567ZM198.281 111.919V111.929H198.292L198.281 111.919ZM198.281 111.841V111.919L198.193 111.841H198.281ZM198.281 111.841V91.2446H215.753V94.7214C215.513 94.7462 215.28 94.7741 215.049 94.8016C214.667 94.8473 214.293 94.8919 213.916 94.9194C211.528 95.0844 210.296 96.2067 210.351 98.7593C210.412 101.74 210.399 104.722 210.385 107.784C210.379 109.119 210.373 110.469 210.373 111.841H198.281ZM251.995 13.0945H245.657C244.446 19.4167 244.758 19.3814 251.117 18.6616C251.397 18.6298 251.69 18.5967 251.995 18.5627V13.0945Z" fill="white"/>
</g>
<rect x="283.027" y="84" width="11" height="11" fill="white"/>
<rect x="272.027" y="87" width="11" height="11" fill="white"/>
<rect x="261.027" y="90" width="11" height="11" fill="white"/>
<rect x="250.027" y="93" width="11" height="11" fill="white"/>
<rect x="301.027" y="112" width="11" height="11" fill="white"/>
<rect x="290.027" y="118" width="11" height="11" fill="white"/>
<rect x="279.027" y="121" width="11" height="11" fill="white"/>
<rect x="268.027" y="124" width="11" height="11" fill="white"/>
<rect x="257.027" y="127" width="11" height="11" fill="white"/>
<defs>
<linearGradient id="paint0_linear_275_7" x1="94" y1="14.2611" x2="420.042" y2="309.205" gradientUnits="userSpaceOnUse">
<stop stop-color="#2CA8DE"/>
<stop offset="0.5" stop-color="#ED75AF"/>
<stop offset="1" stop-color="#FFE600"/>
</linearGradient>
</defs>
</svg>
